<svg xmlns:dc="http://purl.org/dc/elements/1.1/" xmlns:cc="http://creativecommons.org/ns#"
  xmlns:rdf="http://www.w3.org/1999/02/22-rdf-syntax-ns#" xmlns:svg="http://www.w3.org/2000/svg"
  xmlns="http://www.w3.org/2000/svg" xmlns:sodipodi="http://sodipodi.sourceforge.net/DTD/sodipodi-0.dtd"
  xmlns:inkscape="http://www.inkscape.org/namespaces/inkscape" version="1.1" id="svg2" xml:space="preserve"
  width="1046.4532" height="135.12" viewBox="0 0 1046.4532 135.12" sodipodi:docname="MES_R_logo_white.eps">
  <metadata id="metadata8">
    <rdf:RDF>
      <cc:Work rdf:about="">
        <dc:format>image/svg+xml</dc:format>
        <dc:type rdf:resource="http://purl.org/dc/dcmitype/StillImage" />
      </cc:Work>
    </rdf:RDF>
  </metadata>
  <defs id="defs6" />
  <sodipodi:namedview pagecolor="#ffffff" bordercolor="#666666" borderopacity="1" objecttolerance="10"
    gridtolerance="10" guidetolerance="10" inkscape:pageopacity="0" inkscape:pageshadow="2" inkscape:window-width="640"
    inkscape:window-height="480" id="namedview4" />
  <g id="g10" inkscape:groupmode="layer" inkscape:label="ink_ext_XXXXXX"
    transform="matrix(1.3333333,0,0,-1.3333333,0,135.12)">
    <g id="g12" transform="scale(0.1)">
      <path
        d="m 1756.78,421.652 c -25.71,13.215 -52.54,20.336 -81.72,20.063 -60.7,-0.59 -121.43,-0.188 -182.14,-0.172 -12.74,0 -25.34,1.164 -36.49,7.883 -22.78,13.676 -36.11,33.605 -38.13,60.437 -1.01,13.082 -0.08,26.094 4.04,38.555 8.47,25.719 25.5,41.973 52.77,46.484 17.97,2.957 36.11,3.309 54.24,3.332 88.83,0.129 272.84,0.09 273.55,0.09 38.01,0 68.84,30.832 68.84,68.856 0,38.015 -30.83,68.843 -68.84,68.843 -0.71,0 -204.81,0 -303.71,0.063 -20.6,0.023 -40.95,-2.023 -60.86,-7.262 -29.93,-7.886 -58.59,-18.738 -82.31,-39.558 -62.54,-54.922 -86.91,-124.641 -75.35,-205.985 10.17,-71.476 47.65,-125.773 111.9,-160.379 24.37,-13.101 50.48,-19.578 78.28,-19.515 59.55,0.168 119.07,-0.039 178.59,0.148 9.16,0.02 18.26,-0.629 26.95,-2.957 15.12,-4.035 29.24,-11.125 37.87,-24.574 18.65,-29.113 22.71,-60.418 8.23,-92.359 -9.73,-21.477 -27.07,-34.094 -51.08,-37.082 -12.21,-1.543 -24.35,-2.071 -36.58,-2.129 -29.56,-0.125 -560.75,-0.789 -586.4,-0.36 -34.77,0.567 -87.153,11.649 -109.539,21.055 -57.512,24.152 -98.36,64.578 -122.254,122.184 -5.801,13.988 -5.844,13.988 9.75,13.988 91.023,0 228.233,0.418 228.233,0.418 37.72,1.109 68.01,31.871 68.01,69.879 0,37.972 -30.29,68.742 -68.01,69.84 v 0.32 c -1.67,0 -234.19,0 -236.682,0.058 -8.52,0.196 -3.661,10.993 -2.993,12.633 24.325,59.692 67.442,100.758 126.075,125.891 27.234,11.652 79.94,15.629 109.54,15.558 71.27,-0.16 110.37,-0.16 111.39,-0.16 39.45,0 71.42,32 71.42,71.442 0,39.238 -31.66,71.035 -70.82,71.355 0,0 -123.87,0.094 -142.42,-1.508 C 974.211,733.055 906.008,722.824 864.734,702.125 781.285,660.246 719.078,597.809 684.063,510.234 668.617,471.602 658.754,431.512 656.172,389.828 c -2.067,-33.055 2.867,-65.414 9.879,-97.621 C 681.355,221.832 714.648,161.426 767.09,112.129 840.172,43.4297 950.035,6.75 1051.46,8.69141 c 31.2,0.57812 367.08,-1.13282 430.58,-1.13282 61.49,0 122.99,-0.02734 184.5,0.01954 6.3,0 12.7,-0.27735 18.89,0.62109 78.28,11.35158 134.73,52.81638 167.51,124.67178 19.67,43.164 22.96,89.133 14.22,135.481 -12.82,68.043 -47.44,120.992 -110.38,153.3"
        style="fill:#ffffff;fill-opacity:1;fill-rule:nonzero;stroke:none" id="path14" />
      <path d="m 1134.89,738.609 c 8.35,0 -11.64,0 0,0 v 0"
        style="fill:#ffffff;fill-opacity:1;fill-rule:nonzero;stroke:none" id="path16" />
      <path
        d="m 2747.23,319.523 h 224.92 c 2.25,16.309 3.6,32.93 3.6,49.786 0,152.136 -94.68,283.191 -228.52,340.105 V 319.523"
        style="fill:#ffffff;fill-opacity:1;fill-rule:nonzero;stroke:none" id="path18" />
      <path d="M 2676.72,319.523 V 725.957 L 2374.82,318.555 Z"
        style="fill:#ffffff;fill-opacity:1;fill-rule:nonzero;stroke:none" id="path20" />
      <path d="M 2747.23,256.906 V 30.2656 c 99.12,42.293 176.71,125.2144 210.28,226.6404 h -210.28"
        style="fill:#ffffff;fill-opacity:1;fill-rule:nonzero;stroke:none" id="path22" />
      <path
        d="m 2602.11,739.531 c -1.17,0.039 -2.33,0.039 -3.41,0.039 -204.98,0 -378.03,-167.195 -378.03,-365.39 0,-41.992 6.96,-82.227 19.62,-119.754 l 361.82,485.105"
        style="fill:#ffffff;fill-opacity:1;fill-rule:nonzero;stroke:none" id="path24" />
      <path
        d="m 2676.72,256.906 -435.93,-3.808 C 2291.21,105.313 2431.76,0 2598.7,0 c 26.7,0 52.76,2.85156 78.02,8.16016 V 256.906"
        style="fill:#ffffff;fill-opacity:1;fill-rule:nonzero;stroke:none" id="path26" />
      <path
        d="m 3380.67,662.285 v -336.16 h 280.45 V 261.387 H 3380.67 V 12.5586 h -87.09 V 727.043 h 471.7 v -64.758 h -384.61"
        style="fill:#ffffff;fill-opacity:1;fill-rule:nonzero;stroke:none" id="path28" />
      <path
        d="m 4009.15,652.637 -140.2,-327.742 h 277.52 z M 4277.93,19.3555 4174.48,260.148 H 3841.82 L 3737.49,19.3555 h -75.41 L 3968.5,733.867 h 80.35 L 4356.18,19.3555 h -78.25"
        style="fill:#ffffff;fill-opacity:1;fill-rule:nonzero;stroke:none" id="path30" />
      <path
        d="m 4735.2,6.85938 c -213.67,0 -375.21,158.48462 -375.21,367.32062 0,213.711 157.61,372.226 370.31,372.226 147.95,0 273.67,-75.429 328.77,-198.183 h -80.24 c -60.95,95.703 -145.04,132.414 -245.58,132.414 -170.12,0 -300.71,-131.438 -300.71,-303.535 0,-167.325 136.29,-304.5043 301.61,-304.5043 104.47,0 173.14,39.6293 248.53,134.3363 h 79.26 C 4990.43,74.4922 4880.2,6.85938 4735.2,6.85938"
        style="fill:#ffffff;fill-opacity:1;fill-rule:nonzero;stroke:none" id="path32" />
      <path d="M 5345.2,669.102 V 19.3555 h -71.52 V 669.102 h -163.34 v 64.765 h 398.3 V 669.102 H 5345.2"
        style="fill:#ffffff;fill-opacity:1;fill-rule:nonzero;stroke:none" id="path34" />
      <path
        d="m 5897.39,680.637 c -165.35,0 -305.61,-138.254 -305.61,-301.653 0,-169.207 137.39,-306.3863 305.61,-306.3863 166.25,0 304.57,137.1793 304.57,302.6093 0,167.176 -138.32,305.43 -304.57,305.43 z m 0,-673.77762 c -209.75,0 -378.11,166.21862 -378.11,374.05862 0,198.223 173.11,365.488 378.11,365.488 206.95,0 377.09,-166.269 377.09,-370.254 0,-202.097 -170.14,-369.29262 -377.09,-369.29262"
        style="fill:#ffffff;fill-opacity:1;fill-rule:nonzero;stroke:none" id="path36" />
      <path
        d="M 6664.13,286.23 6864.26,19.3555 h -88.98 l -240.7,323.8985 c 200.01,0 267.81,34.824 267.81,163.387 0,118.964 -73.48,162.461 -239.85,162.461 H 6462.06 V 19.3555 h -71.59 V 733.867 h 176.96 c 224.25,0 307.46,-81.23 307.46,-230.137 0,-126.628 -73.44,-202.988 -210.76,-217.5"
        style="fill:#ffffff;fill-opacity:1;fill-rule:nonzero;stroke:none" id="path38" />
      <path
        d="M 7210.38,258.156 V 19.3555 h -71.53 V 258.156 l -247.5,475.711 h 79.24 l 203.03,-400.281 207.93,400.281 h 78.34 L 7210.38,258.156"
        style="fill:#ffffff;fill-opacity:1;fill-rule:nonzero;stroke:none" id="path40" />
      <path
        d="m 7746.43,801.172 -60.8,74.394 c 48.69,-0.39 65.7,4.504 65.7,31.7 0,23.789 -16.62,31.347 -53.24,31.347 h -21.15 V 801.172 h -21.51 v 157.09 h 43.81 c 54.4,0 73.62,-18.887 73.62,-51.727 0,-26.828 -15.84,-43.82 -46.06,-48.332 l 47.21,-57.031 z m -31.72,198.242 c -66.07,0 -119.31,-53.633 -119.31,-119.707 0,-66.074 53.24,-119.316 119.31,-119.316 66.08,0 119.69,53.242 119.69,119.316 0,66.074 -53.61,119.707 -119.69,119.707 z m 0,-253.008 c -73.63,0 -133.28,59.668 -133.28,133.301 0,73.625 59.65,133.673 133.28,133.673 73.63,0 133.69,-60.048 133.69,-133.673 0,-73.633 -60.06,-133.301 -133.69,-133.301"
        style="fill:#ffffff;fill-opacity:1;fill-rule:nonzero;stroke:none" id="path42" />
      <path
        d="m 605.891,83.0586 c 0,193.1324 -0.262,578.4024 -0.262,578.4024 0.117,1.73 0.266,3.453 0.266,5.211 0,42.277 -34.293,76.566 -76.579,76.566 -31.781,0 -59.035,-19.371 -70.617,-46.949 h -0.004 C 409.027,562.422 306.316,283.508 303.965,278.391 299.727,289.551 215,514.355 176.723,616.535 c -9.688,25.82 -16.942,46.512 -26.453,70.719 -9.004,32.277 -38.551,55.984 -73.6958,55.984 C 34.2852,743.238 0,708.949 0,666.672 0,441.23 0,299.902 0,74.4727 c 0,0 0,-5.8399 0.78125,-10 C 5.64453,29.7266 35.418,2.94141 71.5195,2.94141 c 35.8515,0 65.4575,26.41409 70.6365,60.82029 0.641,3.4766 1.067,7.3906 1.067,10.918 0,89.6953 0.015,217.0583 0.015,221.6483 3.621,-2.519 50.832,-129.726 73.926,-190.527 6.434,-16.9533 14.066,-40.0783 21.051,-56.7971 h 0.066 c 9.785,-26.8555 35.465,-46.06249 65.699,-46.06249 30.547,0 56.446,19.59769 66.004,46.87499 h 0.051 c 23.528,62.4886 49.207,130.1446 72.723,192.6246 6.328,16.817 21.347,53.985 21.347,53.985 0,0 0.286,-10.781 0.286,-14.746 0,-88.614 0.257,-214.18 0.289,-214.4144 3.383,-36.1523 33.836,-64.41404 70.851,-64.32419 39.227,0.08984 70.235,31.46489 70.137,70.69139 -0.004,2.6953 0.223,9.1016 0.223,9.4258"
        style="fill:#ffffff;fill-opacity:1;fill-rule:evenodd;stroke:none" id="path44" />
    </g>
  </g>
</svg>
