<?xml version="1.0" encoding="utf-8"?>
<svg viewBox="0 36.189 249.143 97.774" xmlns="http://www.w3.org/2000/svg">
  <g id="g10" transform="matrix(1.333333, 0, 0, -1.333333, 0, 135.119995)">
    <g id="g12" transform="scale(0.1)">
      <path d="m 203.5,599.609 c 18.059,2.977 36.297,3.329 54.512,3.352 89.301,0.133 274.273,0.094 274.98,0.094 38.215,0 69.203,30.988 69.203,69.211 0,38.222 -30.988,69.207 -69.203,69.207 -0.707,0 -205.875,0 -305.289,0.07 -20.711,0.02 -41.172,-2.035 -61.164,-7.305 -30.09,-7.929 -58.918,-18.84 -82.746,-39.769 C 20.9063,639.273 -3.58984,569.18 8.04688,487.43 18.2656,415.578 55.9375,360.973 120.523,326.219 c 24.497,-13.192 50.743,-19.719 78.696,-19.645 59.847,0.184 119.687,-0.023 179.531,0.16 9.195,0.024 18.344,-0.625 27.074,-2.972 15.207,-4.055 29.387,-11.188 38.059,-24.711 18.754,-29.246 22.84,-60.731 8.285,-92.824 -9.797,-21.598 -27.227,-34.262 -51.352,-37.301 -12.253,-1.531 -24.476,-2.059 -36.757,-2.117 C 334.332,146.68 74.2969,146.75 73.6914,146.75 35.707,146.738 0,115.938 0,77.9688 0,41.7695 32.457,12.1484 68.3828,9.44922 69.5469,9.32813 146.641,9.21094 210.461,9.23047 c 61.82,0 123.641,-0.03125 185.457,0.00781 6.34,0 12.77,-0.28906 19,0.61328 78.672,11.41014 135.43,53.07814 168.375,125.33644 19.777,43.386 23.086,89.589 14.301,136.191 -12.903,68.398 -47.696,121.59 -110.969,154.09 -25.828,13.273 -52.801,20.445 -82.129,20.164 -61.027,-0.594 -122.058,-0.184 -183.09,-0.172 -12.808,0 -25.476,1.172 -36.699,7.93 -22.887,13.75 -36.285,33.785 -38.328,60.746 -1.004,13.144 -0.063,26.226 4.082,38.769 8.504,25.828 25.625,42.184 53.039,46.703" style="fill:#ffffff;fill-opacity:1;fill-rule:evenodd;stroke:none" id="path14"/>
      <path d="m 1799.38,147.16 c -2.29,0 -107.46,0.203 -157.82,-0.031 -30.93,-0.156 -60.68,5.742 -89.2,16.699 -32.63,12.52 -60.62,32.25 -83.46,59.125 -34.65,40.715 -57,86.375 -58.93,140.699 -1.9,53.469 12.56,102.227 45.05,144.489 48.03,62.441 111.86,93.57 191.21,92.875 48.8,-0.43 149.08,-0.395 150.44,-0.395 39.02,0 70.68,31.645 70.68,70.676 0,39.035 -31.66,70.687 -70.68,70.687 -1.36,0 -509.5,-0.039 -756.28,0 -21.85,0 -43.503,-2.199 -65.003,-5.816 C 831.145,711.891 715.254,595.195 683.313,463.984 c -8.59,-35.234 -11.465,-71.16 -11.618,-107.234 -0.34,-86.016 0.028,-281.8164 0.028,-281.8164 2.773,-36.75 33.316,-65.74219 70.765,-65.74219 37.45,0 67.992,28.99219 70.766,65.74219 0,0 0.336,178.7144 0.383,216.3674 0.023,14.691 -1.395,12.929 13.609,13.074 2.359,0.035 278.324,0 278.424,0 38.41,0 69.54,31.125 69.54,69.551 0,38.394 -31.13,69.539 -69.54,69.539 -0.1,0 -0.21,-0.016 -0.31,-0.016 v 0.063 c -88.7,-0.008 -177.407,-0.02 -266.102,0.054 -4.207,0 -8.649,-1.125 -12.715,1.254 -0.629,4.731 1.633,8.637 3.246,12.571 16.359,39.734 41.82,72.609 75.981,98.457 42.035,31.8 90.265,44.949 142.42,45.011 91.14,0.114 194.15,0.055 285.29,0 3.4,0 6.96,0.817 10.89,-1.199 -0.98,-4.601 -4.33,-7.547 -6.75,-10.91 -14.79,-20.648 -28.33,-41.945 -37.82,-65.695 -15.35,-38.434 -27.38,-77.75 -31.01,-119.11 -5.34,-60.847 6.03,-119.472 29.41,-175.242 23.83,-56.875 61.29,-104.023 110.54,-141.7772 C 1471.55,38.7617 1541.36,9.76953 1621.2,9 c 57.13,-0.53906 175.89,-0.23047 178.18,-0.23047 38.2,0 69.19,30.98827 69.19,69.19927 0,38.2222 -30.99,69.1912 -69.19,69.1912" style="fill:#ffffff;fill-opacity:1;fill-rule:nonzero;stroke:none" id="path16"/>
    </g>
  </g>
</svg>